# xmcd CD database file
#
# Track frame offsets:
#	150
#	22387
#	39224
#	56006
#	70501
#	90673
#	101865
#	118104
#	132426
#	148228
#	165200
#	187437
#	204274
#	221056
#	235551
#	255723
#	266915
#	283154
#	297476
#	313278
#	330250
#	347087
#
# Disc length: 4775 seconds
#
# Revision: 0
# Processed by: cddbd v1.4PL0 Copyright (c) Steve Scherf et al.
# Submitted via: CDex 1.50
#
DISCID=6212a516
DTITLE=Toby Keith - BoomTown ~Zetroc Tunes Edition~
DYEAR=2003
DGENRE=Country
TTITLE0=Who's That Man
TTITLE1=Big Ol' Truck
TTITLE2=Victoria's Secret
TTITLE3=No Honor Among Theives
TTITLE4=Upstairs Downtown
TTITLE5=You Ain't Much Fun 
TTITLE6=In Other Words
TTITLE7=Woman Behind The Man
TTITLE8=Life Was A Play (The World Was A Stage)
TTITLE9=BoomTown
TTITLE10=Who's That Man
TTITLE11=Big Ol' Truck
TTITLE12=Victoria's Secret
TTITLE13=No Honor Among Theives
TTITLE14=Upstairs Downtown
TTITLE15=You Ain't Much Fun 
TTITLE16=In Other Words
TTITLE17=Woman Behind The Man
TTITLE18=Life Was A Play (The World Was A Stage)
TTITLE19=BoomTown
TTITLE20=Big Ol' Truck
TTITLE21=You Ain't Much Fun 
EXTD=YEAR: 2003
EXTT0=
EXTT1=
EXTT2=
EXTT3=
EXTT4=
EXTT5=
EXTT6=
EXTT7=
EXTT8=
EXTT9=
EXTT10=
EXTT11=
EXTT12=
EXTT13=
EXTT14=
EXTT15=
EXTT16=
EXTT17=
EXTT18=
EXTT19=
EXTT20=
EXTT21=
PLAYORDER=
